<?xml version="1.0" encoding="utf-8"?>
<!-- Generator: Adobe Illustrator 16.0.0, SVG Export Plug-In . SVG Version: 6.00 Build 0)  -->
<!DOCTYPE svg PUBLIC "-//W3C//DTD SVG 1.1//EN" "http://www.w3.org/Graphics/SVG/1.1/DTD/svg11.dtd">
<svg version="1.1" id="Layer_1" xmlns="http://www.w3.org/2000/svg" xmlns:xlink="http://www.w3.org/1999/xlink" x="0px" y="0px"
	 width="128px" height="128px" viewBox="0 0 128 128" enable-background="new 0 0 128 128" xml:space="preserve">
<g>
	<g>
		<path fill="#282D33" d="M77.301,64.672h-2.602v-4h2.602V64.672z M70.699,64.672h-4v-4h4V64.672z M62.699,64.672h-4v-4h4V64.672z
			 M54.699,64.672h-4v-4h4V64.672z"/>
	</g>
	<g>
		<g>
			<path fill="#282D33" d="M25.299,73.28h-6.726c-11.191,0-18.422-8.521-18.422-21.71V33.933h4V51.57
				c0,8.562,3.789,17.71,14.422,17.71h6.726V73.28z"/>
		</g>
		<g>
			<path fill="#282D33" d="M109.428,73.28h-6.791v-4h6.791c10.633,0,14.422-9.216,14.422-17.841V33.802h4v17.638
				C127.85,64.503,120.446,73.28,109.428,73.28z"/>
		</g>
	</g>
	<g>
		<g>
			<g>
				<g>
					<rect x="37.117" y="28.456" fill="#282D33" width="4" height="30.397"/>
				</g>
				<g>
					<rect x="26.567" y="28.456" fill="#282D33" width="4" height="30.397"/>
				</g>
			</g>
			<g>
				<g>
					<rect x="37.117" y="83.509" fill="#282D33" width="4" height="30.396"/>
				</g>
				<g>
					<rect x="26.567" y="83.509" fill="#282D33" width="4" height="30.396"/>
				</g>
			</g>
			<g>
				<path fill="#282D33" d="M40.162,86.108H27.525c-2.277,0-4.13-1.864-4.13-4.156V61.659c0-2.291,1.853-4.154,4.13-4.154h12.637
					c2.274,0,4.125,1.863,4.125,4.154v20.293C44.287,84.244,42.437,86.108,40.162,86.108z M27.525,61.505
					c-0.073,0-0.13,0.067-0.13,0.154v20.293c0,0.088,0.057,0.156,0.13,0.156h12.637c0.069,0,0.125-0.07,0.125-0.156V61.659
					c0-0.093-0.064-0.154-0.125-0.154H27.525z"/>
			</g>
			<g>
				<rect x="31.843" y="75.556" fill="#282D33" width="4" height="7.213"/>
			</g>
		</g>
		<g>
			<g>
				<g>
					<rect x="97.436" y="28.456" fill="#282D33" width="4" height="30.397"/>
				</g>
				<g>
					<rect x="86.884" y="28.456" fill="#282D33" width="4" height="30.397"/>
				</g>
			</g>
			<g>
				<g>
					<rect x="97.436" y="83.509" fill="#282D33" width="4" height="30.396"/>
				</g>
				<g>
					<rect x="86.884" y="83.509" fill="#282D33" width="4" height="30.396"/>
				</g>
			</g>
			<g>
				<path fill="#282D33" d="M100.479,86.108H87.84c-2.276,0-4.129-1.864-4.129-4.156V61.659c0-2.291,1.853-4.154,4.129-4.154h12.639
					c2.274,0,4.125,1.863,4.125,4.154v20.293C104.604,84.244,102.753,86.108,100.479,86.108z M87.84,61.505
					c-0.07,0-0.129,0.07-0.129,0.154v20.293c0,0.086,0.058,0.156,0.129,0.156h12.639c0.069,0,0.125-0.07,0.125-0.156V61.659
					c0-0.084-0.058-0.154-0.125-0.154H87.84z"/>
			</g>
			<g>
				<rect x="92.159" y="75.556" fill="#282D33" width="4" height="7.213"/>
			</g>
		</g>
	</g>
	<g>
		<rect x="42.214" y="69.28" fill="#282D33" width="43.573" height="4"/>
	</g>
	<g>
		<path fill="#282D33" d="M128,116.847H0V26.108h128V116.847z M4,112.847h120V30.108H4V112.847z"/>
	</g>
	<g>
		<polygon fill="#282D33" points="82.622,21.795 78.622,21.795 78.622,15.153 49.379,15.153 49.379,21.795 45.379,21.795 
			45.379,11.153 82.622,11.153 		"/>
	</g>
</g>
</svg>
